# xmcd
#
# Track frame offsets:
# 150
# 16291
# 39788
# 54783
# 64448
# 79586
# 98629
# 113297
# 126006
# 143390
#
# Disc length: 2096 seconds
#
#
# Revision: 0
# Processed by: cddbd v1.5.1PL2 Copyright (c) Steve Scherf et al.
# Submitted via: FreeRIP 2.945 
#
DISCID=68082e0a
DTITLE=The McGruders - Silver and Gold
DYEAR=1900
DGENRE=Gospel
TTITLE0=Ready for the Battle
TTITLE1=Dust on the Altars
TTITLE2=Jesus You've Been So Good to Me
TTITLE3=How Long
TTITLE4=Jordan's Tide
TTITLE5=From Heaven's Point of View
TTITLE6=The Storm
TTITLE7=Too Good to be True
TTITLE8=I'm Standing on a Miracle
TTITLE9=How Can I Hold My Peace
EXTD=
EXTT0=
EXTT1=
EXTT2=
EXTT3=
EXTT4=
EXTT5=
EXTT6=
EXTT7=
EXTT8=
EXTT9=
PLAYORDER=
